# xmcd CD database file
#
# Track frame offsets:
#	150
#	10889
#	26639
#	38440
#	53007
#	69132
#	82441
#	99978
#	114433
#	131316
#	143085
#	155983
#	171122
#	183127
#	197063
#	208053
#	222367
#	238370
#	249066
#	263186
#	281903
#	294995
#
# Disc length: 4086 seconds
#
# Revision: 1
# Processed by: cddbd v1.5.1PL0 Copyright (c) Steve Scherf et al.
# Submitted via: CDex 1.51
#
DISCID=3c0ff416
DTITLE=coletanea sertaneja - coletanea country vol2
DYEAR=2004
DGENRE=sertanejas
TTITLE0=Jota Junior - Vai Jotinha
TTITLE1=Leonardo - A marvada
TTITLE2=Mauricio e Marcelo - Um tiquim
TTITLE3=Gino e Geno - O que é que ela tem
TTITLE4=Rick e Renner - Muleca
TTITLE5=Teodoro e Sampaio - O pau quebrou
TTITLE6=Rick e Renner - Nóis trupica mais não cai
TTITLE7=Teodoro e Sampaio - Paião bandida
TTITLE8=Zeze di Camargo e Luciano - Mexe mexe que é bom
TTITLE9=Gian e Giovanni - O trem é bão
TTITLE10=André e Adriane - Vira e mexe
TTITLE11=Gino e Geno - O gato comeu
TTITLE12=Gian e Giovanni - Rabo de saia
TTITLE13=Romeu e Carlinho - Jogo de truco
TTITLE14=Teodoro e Sampaio - Garanhão da madrugada
TTITLE15=Gian e Giovanni - Abre a janela
TTITLE16=Gino e Geno - Tição acesso
TTITLE17=Teodoro e Sampaio - Meu negócio é mulher
TTITLE18=Gian e Giovanni - Peão não chora
TTITLE19=Dallas Company - Clima de rodeio
TTITLE20=Gleydson Rodrigues - Dadada (risadinha)
TTITLE21=Marcos e Fernando - Socorro
EXTD=YEAR: 2004
EXTT0=
EXTT1=
EXTT2=
EXTT3=
EXTT4=
EXTT5=
EXTT6=
EXTT7=
EXTT8=
EXTT9=
EXTT10=
EXTT11=
EXTT12=
EXTT13=
EXTT14=
EXTT15=
EXTT16=
EXTT17=
EXTT18=
EXTT19=
EXTT20=
EXTT21=
PLAYORDER=
